# xmcd CD database file
#
# Track frame offsets:
#	150
#	35812
#	67746
#	99408
#	122357
#	149430
#	181934
#	208853
#	233018
#	255957
#	265552
#	296362
#	300116
#
# Disc length: 4375 seconds
#
# Revision: 0
# Processed by: cddbd v1.5.1PL0 Copyright (c) Steve Scherf et al.
# Submitted via: CDex 1.51
#
DISCID=a411150d
DTITLE=Los Tangonistas - Tango Seduction - The Club Mix
DYEAR=1997
DGENRE=Salsa
TTITLE0=Don't Cry for my Agentina
TTITLE1=La Cumparista
TTITLE2=9 De Julio
TTITLE3=Hernando's Hideaway
TTITLE4=Buenos Aires
TTITLE5=El Once
TTITLE6=A Media Luz
TTITLE7=Don Juan
TTITLE8=La Paloma
TTITLE9=El Choclo
TTITLE10=Jalousie
TTITLE11=Adios Muchachos
TTITLE12=Por Una Cabeza
EXTD=YEAR: 1997
EXTT0=
EXTT1=
EXTT2=
EXTT3=
EXTT4=
EXTT5=
EXTT6=
EXTT7=
EXTT8=
EXTT9=
EXTT10=
EXTT11=
EXTT12=
PLAYORDER=
